HIERARCHY
ROOT Pelvis
{

	OFFSET     0.000000     0.000000     0.000000
	CHANNELS 6 Xposition Yposition Zposition Zrotation Xrotation Yrotation
	JOINT LowerBack
	{

		OFFSET    -0.000691     0.176488     0.017766
		CHANNELS 3 Zrotation Xrotation Yrotation
		JOINT Chest
		{

			OFFSET    -0.002754     0.128976    -0.000512
			CHANNELS 3 Zrotation Xrotation Yrotation
			JOINT back3
			{

				OFFSET     0.002471     0.201657    -0.000850
				CHANNELS 3 Zrotation Xrotation Yrotation
				JOINT Neck
				{

					OFFSET     0.001840     0.072570     0.000595
					CHANNELS 3 Zrotation Xrotation Yrotation
					JOINT Head
					{

						OFFSET     0.003323     0.152818     0.030907
						CHANNELS 3 Zrotation Xrotation Yrotation
						JOINT joint7
						{

							OFFSET     0.000612     0.183936     0.002625
							CHANNELS 3 Zrotation Xrotation Yrotation
							End Site
							{
								OFFSET     0.000000     0.000000     0.018310
							}
						}

					}

				}

				JOINT LeftCollar
				{

					OFFSET     0.053456     0.093486     0.002205
					CHANNELS 3 Zrotation Xrotation Yrotation
					JOINT LeftShoulder
					{

						OFFSET     0.112884    -0.020868     0.002319
						CHANNELS 3 Zrotation Xrotation Yrotation
						JOINT LeftElbow
						{

							OFFSET     0.297302     0.003523    -0.020737
							CHANNELS 3 Zrotation Xrotation Yrotation
							JOINT LeftWrist
							{

								OFFSET     0.290007     0.004431    -0.007313
								CHANNELS 3 Zrotation Xrotation Yrotation
								JOINT lf_hand
								{

									OFFSET     0.117001    -0.002589    -0.008771
									CHANNELS 3 Zrotation Xrotation Yrotation
									End Site
									{
										OFFSET     0.000000    -0.009821     0.000000
									}
								}

							}

						}

					}

				}

				JOINT RightCollar
				{

					OFFSET    -0.048666     0.096092     0.000301
					CHANNELS 3 Zrotation Xrotation Yrotation
					JOINT RightShoulder
					{

						OFFSET    -0.115072    -0.022479    -0.001894
						CHANNELS 3 Zrotation Xrotation Yrotation
						JOINT RightElbow
						{

							OFFSET    -0.297072     0.004954    -0.020752
							CHANNELS 3 Zrotation Xrotation Yrotation
							JOINT RightWrist
							{

								OFFSET    -0.292425    -0.005826    -0.023258
								CHANNELS 3 Zrotation Xrotation Yrotation
								JOINT rt_hand
								{

									OFFSET    -0.118185    -0.001061    -0.015047
									CHANNELS 3 Zrotation Xrotation Yrotation
									End Site
									{
										OFFSET     0.000000    -0.009987     0.000000
									}
								}

							}

						}

					}

				}

			}

			JOINT joint13
			{

				OFFSET     0.125914     0.117470     0.000000
				CHANNELS 3 Zrotation Xrotation Yrotation
				End Site
				{
					OFFSET     0.000000     0.000000    -0.017144
				}
			}

			JOINT joint14
			{

				OFFSET    -0.120063     0.114907     0.000000
				CHANNELS 3 Zrotation Xrotation Yrotation
				End Site
				{
					OFFSET     0.000000     0.000000    -0.016479
				}
			}

		}

	}

	JOINT RightHip
	{

		OFFSET    -0.109283    -0.057257     0.000987
		CHANNELS 3 Zrotation Xrotation Yrotation
		JOINT RightKnee
		{

			OFFSET     0.002149    -0.429339     0.038617
			CHANNELS 3 Zrotation Xrotation Yrotation
			JOINT RightAnkle
			{

				OFFSET    -0.001765    -0.522522    -0.077092
				CHANNELS 3 Zrotation Xrotation Yrotation
				JOINT r_ball
				{

					OFFSET    -0.000000    -0.037315     0.142913
					CHANNELS 3 Zrotation Xrotation Yrotation
					End Site
					{
						OFFSET     0.000000     0.000000     0.014648
					}
				}

			}

		}

	}

	JOINT LeftHip
	{

		OFFSET     0.098180    -0.056757     0.003895
		CHANNELS 3 Zrotation Xrotation Yrotation
		JOINT LeftKnee
		{

			OFFSET     0.007057    -0.430531     0.035812
			CHANNELS 3 Zrotation Xrotation Yrotation
			JOINT LeftAnkle
			{

				OFFSET    -0.005475    -0.521755    -0.078136
				CHANNELS 3 Zrotation Xrotation Yrotation
				JOINT lf_ball
				{

					OFFSET     0.000065    -0.036737     0.143337
					CHANNELS 3 Zrotation Xrotation Yrotation
					End Site
					{
						OFFSET     0.000000     0.000000     0.014648
					}
				}

			}

		}

	}

}

MOTION
Frames: 6
Frame Time: 0.033333
    0.000000     0.872548     0.000000   -13.361620    13.178893    52.645061    -5.973420    -3.343717     4.949793     3.722518     4.958112     9.441114     0.000000     0.000000     0.000000     0.000000     0.000000     0.000000    -8.205672   -21.296335   -19.820034     0.000000     0.000000     0.000000    16.427261     1.887226     6.397801   -86.049934     8.363896    34.679989     0.977718     1.913025   -54.138603     5.026165    10.970250    -4.557950     0.000000     0.000000     0.000000   -28.218195     3.836522    -7.118137    60.858246    30.440903    21.118412    -1.789844     2.287318    76.084045   -28.925129    19.944530    10.831923     0.000000     0.000000     0.000000     0.000000     0.000000     0.000000     0.000000     0.000000     0.000000    -1.066190     7.146313   -12.576647     0.000000    20.376272     0.000000   -14.575823    21.104851     3.260301     0.000000     0.000000     0.000000    -4.638363   -46.681366     4.879637     0.000000    27.371645     0.000000     8.868271   -11.119060    10.444325     0.000000     0.000000     0.000000 
    0.058954     0.889505     0.042817   -13.079772    12.054806    52.319801    -4.044241    -2.167231     4.243915     3.589551     2.940932     8.920559     0.000000     0.000000     0.000000     0.000000     0.000000     0.000000    -9.179564   -17.358257   -17.100138     0.000000     0.000000     0.000000    15.888306     1.779148     6.204625   -89.144203    10.590975    30.985655     0.908098     1.862045   -51.992912     4.858704    10.321454    -4.259260     0.000000     0.000000     0.000000   -26.221375     3.527274    -7.132889    64.306580    33.445099    15.287299    -1.550108     2.220962    70.118446   -28.540476    20.135302     9.501724     0.000000     0.000000     0.000000     0.000000     0.000000     0.000000     0.000000     0.000000     0.000000    -3.239989    -2.240141   -12.618516     0.000000    25.290054     0.000000   -13.146828    19.881569     2.714700     0.000000     0.000000     0.000000    -4.158455   -39.774017     5.906919    -0.001712    25.516737     0.007561     8.034372   -13.714551     9.934201     0.000000     0.000000     0.000000 
    0.117814     0.909313     0.085151   -12.800430    10.868690    51.794746    -2.103932    -1.009296     3.501407     3.433533     0.918697     8.393033     0.000000     0.000000     0.000000     0.000000     0.000000     0.000000   -10.359239   -13.491972   -14.385526     0.000000     0.000000     0.000000    15.359522     1.659861     6.013243   -92.068153    12.735254    27.237007     0.837416     1.802249   -49.841068     4.685984     9.666858    -3.967287     0.000000     0.000000     0.000000   -24.012581     3.174432    -7.100890    68.229080    36.055584     8.997762    -1.309349     2.119651    63.727097   -28.223873    20.329662     8.215945     0.000000     0.000000     0.000000     0.000000     0.000000     0.000000     0.000000     0.000000     0.000000    -5.474036   -11.636254   -13.023222     0.000000    30.217529     0.000000   -11.755511    18.643122     2.199902     0.000000     0.000000     0.000000    -3.906513   -31.427338     6.788903     0.000000    20.830591     0.000000     7.620407   -15.689075     9.488918     0.000000     0.000000     0.000000 
    0.176721     0.928433     0.127727   -12.534522     9.714146    51.385159    -0.462008    -0.317693     2.440190     3.186196    -0.449467     7.786354     0.000000     0.000000     0.000000     0.000000     0.000000     0.000000   -10.652049   -10.625169   -11.989082     0.000000     0.000000     0.000000    14.639781     1.417977     5.427821   -93.696373    15.355663    22.560995     0.754087     1.732299   -47.045368     4.622654     8.451309    -4.387434     0.000000     0.000000     0.000000   -21.905441     2.840050    -7.067993    72.722839    37.935917     2.484841    -1.094794     1.993321    57.550495   -27.865242    20.513592     6.904434     0.000000     0.000000     0.000000     0.000000     0.000000     0.000000     0.000000     0.000000     0.000000    -6.296738   -19.106680   -13.947507    -0.008065    33.922543     0.002460   -10.409285    15.717349     1.320090     0.000000     0.000000     0.000000    -3.931501   -21.973871     7.372107     0.000000    13.618307     0.000000     7.021156   -16.370190     8.955346     0.000000     0.000000     0.000000 
    0.235815     0.943084     0.171267   -12.286584     8.689528    51.403893     0.891540    -0.413082     0.856688     2.597762    -0.829884     7.301124     0.000000     0.000000     0.000000     0.000000     0.000000     0.000000    -8.976364    -9.023341   -10.088552     0.000000     0.000000     0.000000    14.426287     1.097170     4.262537   -92.781357    19.367413    15.873664     0.736779     1.716878   -46.449570     4.837391     7.333344    -6.530869     0.000000     0.000000     0.000000   -20.221180     2.609846    -7.081367    77.692276    38.775558    -4.143409    -0.911861     1.859683    52.237328   -27.349895    20.686731     5.480248     0.000000     0.000000     0.000000     0.000000     0.000000     0.000000     0.000000     0.000000     0.000000    -4.979602   -24.126472   -15.279338     0.000000    28.741066     0.000000    -9.142212    10.123990     0.571949     0.000000     0.000000     0.000000    -4.228435   -11.406163     7.618929    -0.000226     3.694769     0.007007     5.766430   -14.930589     8.187459     0.000000     0.000000     0.000000 
    0.295234     0.949029     0.216496   -12.041129     7.917923    52.169254     1.929522    -0.981968    -0.976967     1.932575    -0.565721     6.758075     0.000000     0.000000     0.000000     0.000000     0.000000     0.000000    -6.289416    -8.205297    -8.599787     0.000000     0.000000     0.000000    14.555401     0.759455     2.907863   -89.702225    23.558781     7.863917     0.764371     1.743138   -47.352528     5.252879     6.301512    -9.651183     0.000000     0.000000     0.000000   -19.278904     2.524319    -7.192728    82.473526    38.356285   -10.723467    -0.794823     1.767812    48.415428   -26.580191    20.814121     3.887244     0.000000     0.000000     0.000000     0.000000     0.000000     0.000000     0.000000     0.000000     0.000000    -2.451823   -27.902655   -16.674641     0.000000    18.755579     0.000000    -7.860470     2.985183     0.857575     0.000000     0.000000     0.000000    -4.021976    -3.558717     5.914565     0.000000    -1.469132     0.000000     4.899071   -13.461114     7.457591     0.000000     0.000000     0.000000 
